<svg id="Слой_1" data-name="Слой 1" xmlns="http://www.w3.org/2000/svg" viewBox="0 0 2000 1510.41"><defs><style>.cls-1{fill:#071739;}.cls-2{fill:#274684;}.cls-3{fill:#709fdc;}</style></defs><path class="cls-1" d="M0,1506.27V1264.8H193.17v58.64H66.92v41H181.1V1420H66.92v86.24Z"/><path class="cls-1" d="M204.21,1506.27,307,1263.08h64.51L474.3,1506.27H402.56L385,1463.15H291.83l-17.25,43.12Zm107.28-95.21h54.16l-26.91-68.64Z"/><path class="cls-1" d="M592.62,1510.41q-68.29,0-113.14-40l37.25-44.5q36.22,29,78.31,29,27.59,0,27.59-17.25,0-7.57-8.28-12.59t-32.42-10.52a365.66,365.66,0,0,1-36.39-10.18,141,141,0,0,1-27.95-13.45,53.1,53.1,0,0,1-20.17-21.56q-6.57-13.11-6.56-31.39,0-34.15,25.36-55.71t68.12-21.56q59.32,0,99.35,32.08L650.23,1340q-33.81-23.8-67.61-23.8-11.73,0-17.94,4.48a13.85,13.85,0,0,0-6.21,11.73q0,8.28,8.45,13.11t33.29,10.35q45.54,10,67.78,26.73t22.25,49.16q0,36.57-26.56,57.6T592.62,1510.41Z"/><path class="cls-1" d="M781.65,1506.27V1323.44H709.21V1264.8H921v58.64H848.57v182.83Z"/><path class="cls-1" d="M942.74,1427.27v-57.6h113.14v57.6Z"/><path class="cls-1" d="M1091.06,1506.27V1264.8H1158v90.38h85.89V1264.8h66.92v241.47h-66.92v-91.76H1158v91.76Z"/><path class="cls-1" d="M1353.57,1506.27V1264.8h194.2v56.92h-128v36.56h115.9v52.78H1419.8v38.29h129.7v56.92Z"/><path class="cls-1" d="M1583.65,1506.27V1264.8h66.92v182.83H1767.5v58.64Z"/><path class="cls-1" d="M1796.13,1506.27V1264.8h103.49q46.22,0,73.3,22.6t27.08,62.95q0,41.4-28.63,64.16t-75.2,22.77h-33.11v69Zm66.93-121.42h31.73q17.94,0,28.11-8.63t10.18-23.46q0-15.51-10.18-23.62t-28.45-8.11h-31.39Z"/><path class="cls-2" d="M747.9,1023.12c33.17,19.2,81,41.35,135.77,49.61a138,138,0,0,1-8.58,17.42c-10,17-24.64,25.62-41.24,25.62a59.46,59.46,0,0,1-25.08-6c-15.72-7.35-26.85-19.74-36-34C762,1059.16,754.16,1041.44,747.9,1023.12Z"/><path class="cls-2" d="M726.05,931.46c36.67,23.35,101.32,56.9,176,62.1-2.44,18.54-5.55,37-10.39,55.13-66.78-9.3-124-41.4-154-61.12-.54-2.13-1.06-4.24-1.55-6.37C732.18,964.71,728.87,948.11,726.05,931.46Z"/><path class="cls-2" d="M715.61,846.55C753.56,871.38,827,911,911.49,912.34c-.66,5.12-1.29,10.26-1.92,15.37-1.69,13.67-3.06,27.4-4.57,41.1-84.39-5.79-156.83-51.35-183.92-70.52Q717.71,872.49,715.61,846.55Z"/><path class="cls-2" d="M923,830.25c-3.07,19.06-5.77,38.18-8.32,57.35-93.08-.83-174.49-53.3-201.32-72.58-.32-5.63-.65-11.3-.93-16.93-.54-10.83-.9-21.66-1.17-32.49C752.2,792.18,832.43,834.52,923,830.25Z"/><path class="cls-2" d="M947.12,754c-10.12,15.64-16.27,33.14-19.88,51.25-97.44,6.4-185.38-48-216.75-70.09-.11-3.88-.19-7.74-.3-11.62a112.82,112.82,0,0,0-5-29.45C760,720.7,851,755.73,947.12,754Z"/><path class="cls-3" d="M1383.67,489c-8.73,33.61-22.21,65.27-37.08,96.36-7,14.63-14.31,29.16-21.55,43.68-1,1.91-1.92,3.88-2.9,5.85-7.28,14.79-14.19,29.86-20.26,45.2-1.26,3.06-2.44,6.15-3.61,9.3-4,10.91-5.53,23.24-5.66,35-.85,77.5-4.71,154.7-19.09,231-6.62,35.25-14.82,70.17-31.78,102A169.83,169.83,0,0,1,1213.9,1096c-7.32,7.58-18.26,13.1-28.63,16.11a53.08,53.08,0,0,1-14.85,2.24,41.35,41.35,0,0,1-14.19-2.43,47.83,47.83,0,0,1-5.17-2.33,40.82,40.82,0,0,1-5-3,35.38,35.38,0,0,1-3.5-2.77c-.38-.32-.76-.65-1.15-1-1.5-1.34-3-2.87-4.4-4.45s-2.76-3.34-4.07-5.17c-.66-.93-1.29-1.89-1.92-2.85-13.21-20.45-19.55-43.56-23-67.16-6.54-44.41-11.76-89-17.42-133.5-4.49-35-8.4-70.17-20.57-103.48-5.3-14.57-12.16-29.31-21.49-41.56a67.67,67.67,0,0,0-4.84-5.64c-.82-.87-1.7-1.72-2.57-2.54A57.23,57.23,0,0,0,979.52,725C853,745.75,734.64,684.61,690.2,657.81c-2.08-4.32-4.18-8.64-6.23-13q-3.53-7.41-7.09-14.73c-7.65-16-15.42-31.86-23-47.83C645.22,564,636.77,545.74,629,527.12c-16.81-40.23-26.28-83-27-126.58-1.2-78.24,28.55-143.68,89.7-193q8.24-6.65,16.9-12.47c4.29-2.93,8.69-5.69,13.12-8.31,1.48-.85,3-1.7,4.46-2.52,3.47-1.94,7-3.8,10.53-5.5,2.54-1.31,5.09-2.51,7.66-3.63,1.56-.71,3.09-1.4,4.65-2.08,2.76-1.15,5.52-2.27,8.31-3.34s5.6-2.05,8.42-3c4.21-1.42,8.48-2.73,12.74-3.88,1.43-.41,2.85-.79,4.27-1.15h0c3.5-.87,7-1.67,10.47-2.4.38-.06.77-.2,1.15-.25,3.23-.68,6.48-1.2,9.73-1.72.69-.11,1.35-.25,2-.33,3-.47,6.07-.82,9.1-1.15l2.74-.33c2.87-.27,5.74-.46,8.64-.65,1.07-.06,2.19-.17,3.25-.2,2.77-.11,5.5-.19,8.26-.21.91,0,1.81-.06,2.71-.06l.9,0c3.07,0,6.13.08,9.19.22l3.17.13q4.64.28,9.27.74c1,.11,2.08.17,3.12.3,3.09.3,6.15.77,9.19,1.23,1,.17,2.1.25,3.17.44,3,.47,6,1.07,9,1.72,1.09.17,2.16.36,3.22.63,3,.63,6,1.4,8.92,2.14,1.09.3,2.16.51,3.25.82,2.93.79,5.85,1.72,8.72,2.62,1.1.36,2.22.66,3.31,1,3,1,5.94,2.08,8.84,3.17,1,.39,2.05.72,3,1.13,3.94,1.5,7.82,3.14,11.68,4.89q7,3.16,13.92,6.84a247.24,247.24,0,0,1,39.59,26.19c2.16,1.73,4.35,3.45,7.06,5.58,0,0,1.15.88,3.39,2.41a1.89,1.89,0,0,1,.25-.3,119.85,119.85,0,0,1,32.1-28.3,240.92,240.92,0,0,1,59.48-25.9,232.7,232.7,0,0,1,63.91-8.94,236.55,236.55,0,0,1,74.32,12,243.35,243.35,0,0,1,32.57,13.51c1.92,1,3.8,1.94,5.69,2.92L993.41,459.33,824.77,290.71V449.27L993.41,617.88,1355.34,256A234.39,234.39,0,0,1,1390,330c.93,3.52,1.81,7,2.58,10.61s1.47,7.16,2.1,10.8C1402.7,398.35,1395.37,443.85,1383.67,489Z"/><polygon class="cls-3" points="1398.05 0 1398.05 54.69 993.41 459.33 824.77 290.71 824.77 236.02 993.41 404.64 1398.05 0"/></svg>